<?xml version="1.0" encoding="utf-8"?>
<!-- Generator: Adobe Illustrator 21.0.0, SVG Export Plug-In . SVG Version: 6.00 Build 0)  -->
<svg version="1.1" id="Layer_1" xmlns="http://www.w3.org/2000/svg" xmlns:xlink="http://www.w3.org/1999/xlink" x="0px" y="0px"
	 viewBox="0 0 1440 720" style="enable-background:new 0 0 1440 720;" xml:space="preserve">
<style type="text/css">
	.st0{fill:#FFEE52;}
	.st1{fill:#FC3500;}
	.st2{fill:#FCEDA4;}
</style>
<g>
	<path class="st0" d="M130.2,253.4h12.3v88h-12.3v-40.6H87.2v40.6H74.9v-88h12.3v36.7h43.1V253.4z"/>
	<path class="st0" d="M185,273.7c4.7,0,8.7,0.6,12,1.8c3.3,1.2,5.9,3,7.9,5.2c2,2.2,3.4,4.9,4.3,8c0.8,3.1,1.3,6.5,1.3,10.2v41.3
		c-1,0.2-2.4,0.4-4.3,0.7c-1.8,0.3-3.9,0.6-6.2,0.8s-4.8,0.5-7.4,0.7c-2.7,0.2-5.3,0.3-7.9,0.3c-3.7,0-7.2-0.4-10.3-1.1
		c-3.1-0.8-5.8-2-8.1-3.6c-2.3-1.7-4.1-3.8-5.3-6.5c-1.3-2.7-1.9-6-1.9-9.8c0-3.6,0.7-6.8,2.2-9.4c1.5-2.6,3.5-4.7,6-6.4
		c2.5-1.6,5.5-2.8,8.9-3.6c3.4-0.8,6.9-1.1,10.7-1.1c1.2,0,2.4,0.1,3.7,0.2s2.5,0.3,3.6,0.5c1.1,0.2,2.1,0.4,3,0.6
		c0.8,0.2,1.4,0.3,1.8,0.4v-3.3c0-1.9-0.2-3.9-0.6-5.8c-0.4-1.9-1.2-3.6-2.3-5.1c-1.1-1.5-2.6-2.7-4.5-3.6c-1.9-0.9-4.4-1.3-7.4-1.3
		c-3.9,0-7.3,0.3-10.2,0.8c-2.9,0.6-5.1,1.1-6.5,1.7l-1.4-9.8c1.5-0.7,4.1-1.3,7.6-2C177,274.1,180.8,273.7,185,273.7z M186,332.9
		c2.8,0,5.3-0.1,7.4-0.2c2.2-0.1,4-0.4,5.4-0.7v-19.7c-0.8-0.4-2.2-0.8-4.1-1.1c-1.9-0.3-4.2-0.4-6.9-0.4c-1.8,0-3.7,0.1-5.7,0.4
		c-2,0.3-3.8,0.8-5.5,1.6c-1.7,0.8-3,1.9-4.1,3.3c-1.1,1.4-1.7,3.2-1.7,5.5c0,4.2,1.4,7.2,4.1,8.8
		C177.6,332.1,181.3,332.9,186,332.9z"/>
	<path class="st0" d="M288.1,308.5c0,5-0.7,9.6-2,13.8c-1.3,4.2-3.2,7.9-5.8,10.9s-5.7,5.4-9.3,7.1c-3.7,1.7-7.9,2.5-12.6,2.5
		c-3.8,0-7.2-0.5-10.1-1.5c-2.9-1-5.1-2-6.5-2.9v26.4h-11.8v-87.5c2.8-0.7,6.3-1.4,10.5-2.2c4.2-0.8,9-1.2,14.5-1.2
		c5.1,0,9.7,0.8,13.7,2.4c4.1,1.6,7.5,3.9,10.4,6.9c2.9,3,5.1,6.6,6.7,10.9C287.3,298.4,288.1,303.2,288.1,308.5z M275.8,308.5
		c0-7.7-1.9-13.6-5.7-17.8c-3.8-4.1-8.9-6.2-15.2-6.2c-3.6,0-6.3,0.1-8.3,0.4c-2,0.3-3.6,0.6-4.8,0.9v41.7c1.4,1.2,3.5,2.3,6.2,3.4
		c2.7,1.1,5.7,1.7,8.9,1.7c3.4,0,6.3-0.6,8.7-1.8c2.4-1.2,4.4-2.9,5.9-5.1s2.6-4.7,3.3-7.6C275.4,315.1,275.8,311.9,275.8,308.5z"/>
	<path class="st0" d="M362.9,308.5c0,5-0.7,9.6-2,13.8c-1.3,4.2-3.2,7.9-5.8,10.9s-5.7,5.4-9.3,7.1c-3.7,1.7-7.9,2.5-12.6,2.5
		c-3.8,0-7.2-0.5-10.1-1.5c-2.9-1-5.1-2-6.5-2.9v26.4h-11.8v-87.5c2.8-0.7,6.3-1.4,10.5-2.2c4.2-0.8,9-1.2,14.5-1.2
		c5.1,0,9.7,0.8,13.7,2.4c4.1,1.6,7.5,3.9,10.4,6.9c2.9,3,5.1,6.6,6.7,10.9C362.1,298.4,362.9,303.2,362.9,308.5z M350.6,308.5
		c0-7.7-1.9-13.6-5.7-17.8c-3.8-4.1-8.9-6.2-15.2-6.2c-3.6,0-6.3,0.1-8.3,0.4c-2,0.3-3.6,0.6-4.8,0.9v41.7c1.4,1.2,3.5,2.3,6.2,3.4
		c2.7,1.1,5.7,1.7,8.9,1.7c3.4,0,6.3-0.6,8.7-1.8c2.4-1.2,4.4-2.9,5.9-5.1s2.6-4.7,3.3-7.6C350.2,315.1,350.6,311.9,350.6,308.5z"/>
	<path class="st0" d="M370,353.8c0.9,0.4,2.1,0.8,3.6,1.2c1.5,0.4,2.9,0.6,4.4,0.6c4.7,0,8.3-1,10.9-3.1c2.6-2.1,5-5.4,7.1-10.1
		c-5.3-10.2-10.3-20.9-14.9-32.3c-4.6-11.4-8.4-22.9-11.5-34.6h12.7c0.9,3.8,2.1,7.9,3.4,12.3c1.3,4.4,2.8,8.9,4.4,13.6
		c1.6,4.7,3.3,9.3,5.2,14c1.9,4.7,3.8,9.1,5.8,13.5c3.2-8.9,6-17.7,8.4-26.4c2.4-8.7,4.6-17.7,6.7-26.9h12.2
		c-3,12.4-6.4,24.4-10.2,35.9c-3.7,11.5-7.7,22.2-12.1,32.2c-1.7,3.8-3.5,7.1-5.3,9.8c-1.8,2.8-3.8,5-6,6.8
		c-2.2,1.8-4.7,3.1-7.4,3.9c-2.8,0.8-5.9,1.3-9.3,1.3c-0.9,0-1.9-0.1-2.9-0.2s-2-0.3-3-0.5c-1-0.2-1.9-0.4-2.7-0.7
		c-0.8-0.3-1.4-0.5-1.7-0.6L370,353.8z"/>
	<path class="st1" d="M542.1,253.4c-3.2,9.3-6.3,17.9-9.2,25.8c-2.9,7.9-5.8,15.4-8.6,22.5c-2.8,7.1-5.6,13.9-8.3,20.4
		c-2.8,6.5-5.6,12.9-8.4,19.2H496c-2.9-6.4-5.7-12.8-8.4-19.2c-2.8-6.5-5.5-13.3-8.4-20.4c-2.8-7.1-5.7-14.6-8.7-22.5
		c-3-7.9-6-16.5-9.1-25.8h13.6c4.6,13.4,9.1,26.2,13.5,38.6c4.4,12.4,8.9,24,13.6,34.8c4.7-10.8,9.2-22.3,13.6-34.7
		c4.4-12.4,8.8-25.3,13.3-38.7H542.1z"/>
	<path class="st1" d="M571.7,273.7c4.7,0,8.7,0.6,12,1.8c3.3,1.2,5.9,3,7.9,5.2c2,2.2,3.4,4.9,4.3,8c0.8,3.1,1.3,6.5,1.3,10.2v41.3
		c-1,0.2-2.4,0.4-4.3,0.7c-1.8,0.3-3.9,0.6-6.2,0.8s-4.8,0.5-7.4,0.7c-2.7,0.2-5.3,0.3-7.9,0.3c-3.7,0-7.2-0.4-10.3-1.1
		c-3.1-0.8-5.8-2-8.1-3.6c-2.3-1.7-4.1-3.8-5.3-6.5c-1.3-2.7-1.9-6-1.9-9.8c0-3.6,0.7-6.8,2.2-9.4c1.5-2.6,3.5-4.7,6-6.4
		c2.5-1.6,5.5-2.8,8.9-3.6c3.4-0.8,6.9-1.1,10.7-1.1c1.2,0,2.4,0.1,3.7,0.2s2.5,0.3,3.6,0.5c1.1,0.2,2.1,0.4,3,0.6
		c0.8,0.2,1.4,0.3,1.8,0.4v-3.3c0-1.9-0.2-3.9-0.6-5.8c-0.4-1.9-1.2-3.6-2.3-5.1c-1.1-1.5-2.6-2.7-4.5-3.6c-1.9-0.9-4.4-1.3-7.4-1.3
		c-3.9,0-7.3,0.3-10.2,0.8c-2.9,0.6-5.1,1.1-6.5,1.7l-1.4-9.8c1.5-0.7,4.1-1.3,7.6-2C563.7,274.1,567.5,273.7,571.7,273.7z
		 M572.7,332.9c2.8,0,5.3-0.1,7.4-0.2c2.2-0.1,4-0.4,5.4-0.7v-19.7c-0.8-0.4-2.2-0.8-4.1-1.1c-1.9-0.3-4.2-0.4-6.9-0.4
		c-1.8,0-3.7,0.1-5.7,0.4c-2,0.3-3.8,0.8-5.5,1.6c-1.7,0.8-3,1.9-4.1,3.3c-1.1,1.4-1.7,3.2-1.7,5.5c0,4.2,1.4,7.2,4.1,8.8
		C564.4,332.1,568,332.9,572.7,332.9z"/>
	<path class="st1" d="M636.4,342.7c-7.3-0.2-12.4-1.7-15.5-4.7c-3-3-4.6-7.6-4.6-13.8v-79.2l11.8-2v79.4c0,1.9,0.2,3.6,0.5,4.8
		c0.3,1.3,0.9,2.3,1.7,3c0.8,0.8,1.8,1.3,3,1.7c1.3,0.4,2.8,0.7,4.7,1L636.4,342.7z"/>
	<path class="st1" d="M647.6,308.5c0-5.8,0.8-10.9,2.5-15.3c1.7-4.4,3.9-8,6.7-10.9c2.8-2.9,6-5,9.7-6.5c3.6-1.4,7.4-2.2,11.2-2.2
		c8.9,0,15.7,2.8,20.4,8.3c4.7,5.5,7.1,14,7.1,25.3c0,0.5,0,1.2,0,2c0,0.8,0,1.5-0.1,2.2h-45.2c0.5,6.9,2.5,12.1,6,15.6
		c3.5,3.6,8.9,5.3,16.3,5.3c4.1,0,7.6-0.4,10.5-1.1c2.8-0.7,5-1.4,6.4-2.1l1.7,9.9c-1.4,0.8-4,1.6-7.6,2.4
		c-3.6,0.8-7.7,1.3-12.3,1.3c-5.8,0-10.7-0.9-14.9-2.6c-4.2-1.7-7.6-4.1-10.4-7.2c-2.7-3-4.7-6.7-6-10.9
		C648.3,318.1,647.6,313.5,647.6,308.5z M693,302.1c0.1-5.3-1.3-9.7-4-13.1c-2.8-3.4-6.5-5.1-11.4-5.1c-2.7,0-5.1,0.5-7.2,1.6
		c-2.1,1.1-3.8,2.4-5.3,4.1c-1.4,1.7-2.6,3.6-3.4,5.8c-0.8,2.2-1.3,4.4-1.6,6.7H693z"/>
	<path class="st1" d="M722.3,277.3c2.7-0.7,6.3-1.4,10.8-2.2c4.5-0.8,9.7-1.1,15.5-1.1c5.2,0,9.6,0.7,13.1,2.2
		c3.5,1.5,6.2,3.6,8.3,6.2c2.1,2.7,3.5,5.9,4.4,9.6c0.8,3.7,1.3,7.8,1.3,12.3v37.1h-11.8v-34.5c0-4.1-0.3-7.5-0.8-10.4
		c-0.6-2.9-1.5-5.2-2.7-7c-1.3-1.8-3-3.1-5.1-3.9c-2.1-0.8-4.7-1.2-7.9-1.2c-1.3,0-2.6,0-3.9,0.1c-1.4,0.1-2.6,0.2-3.9,0.3
		c-1.2,0.1-2.3,0.3-3.3,0.4c-1,0.2-1.7,0.3-2.1,0.4v55.8h-11.8V277.3z"/>
	<path class="st1" d="M806.2,275.4h25v9.9h-25v30.5c0,3.3,0.3,6,0.8,8.2c0.5,2.2,1.3,3.9,2.3,5.1c1,1.2,2.3,2.1,3.8,2.6
		c1.5,0.5,3.3,0.8,5.3,0.8c3.6,0,6.4-0.4,8.6-1.2c2.2-0.8,3.7-1.4,4.5-1.7l2.3,9.8c-1.2,0.6-3.3,1.3-6.2,2.2
		c-3,0.9-6.3,1.3-10.2,1.3c-4.5,0-8.2-0.6-11.1-1.7s-5.3-2.9-7-5.1c-1.8-2.3-3-5.1-3.7-8.4c-0.7-3.3-1.1-7.2-1.1-11.6V257l11.8-2
		V275.4z"/>
	<path class="st1" d="M852.1,263.5c-2.1,0-3.9-0.7-5.4-2.1c-1.5-1.4-2.2-3.3-2.2-5.7c0-2.4,0.7-4.3,2.2-5.7c1.5-1.4,3.3-2.1,5.4-2.1
		c2.1,0,3.9,0.7,5.4,2.1c1.5,1.4,2.2,3.3,2.2,5.7c0,2.4-0.7,4.3-2.2,5.7C856,262.8,854.2,263.5,852.1,263.5z M858.1,341.4h-11.8v-66
		h11.8V341.4z"/>
	<path class="st1" d="M878.4,277.3c2.7-0.7,6.3-1.4,10.8-2.2c4.5-0.8,9.7-1.1,15.5-1.1c5.2,0,9.6,0.7,13.1,2.2
		c3.5,1.5,6.2,3.6,8.3,6.2c2.1,2.7,3.5,5.9,4.4,9.6c0.8,3.7,1.3,7.8,1.3,12.3v37.1h-11.8v-34.5c0-4.1-0.3-7.5-0.8-10.4
		c-0.6-2.9-1.5-5.2-2.7-7c-1.3-1.8-3-3.1-5.1-3.9c-2.1-0.8-4.7-1.2-7.9-1.2c-1.3,0-2.6,0-3.9,0.1c-1.4,0.1-2.6,0.2-3.9,0.3
		c-1.2,0.1-2.3,0.3-3.3,0.4c-1,0.2-1.7,0.3-2.1,0.4v55.8h-11.8V277.3z"/>
	<path class="st1" d="M947.6,308.5c0-5.8,0.8-10.9,2.5-15.3c1.7-4.4,3.9-8,6.7-10.9c2.8-2.9,6-5,9.7-6.5c3.6-1.4,7.4-2.2,11.2-2.2
		c8.9,0,15.7,2.8,20.4,8.3c4.7,5.5,7.1,14,7.1,25.3c0,0.5,0,1.2,0,2c0,0.8,0,1.5-0.1,2.2h-45.2c0.5,6.9,2.5,12.1,6,15.6
		c3.5,3.6,8.9,5.3,16.3,5.3c4.1,0,7.6-0.4,10.5-1.1c2.8-0.7,5-1.4,6.4-2.1l1.7,9.9c-1.4,0.8-4,1.6-7.6,2.4
		c-3.6,0.8-7.7,1.3-12.3,1.3c-5.8,0-10.7-0.9-14.9-2.6c-4.2-1.7-7.6-4.1-10.4-7.2c-2.7-3-4.7-6.7-6-10.9
		C948.2,318.1,947.6,313.5,947.6,308.5z M992.9,302.1c0.1-5.3-1.3-9.7-4-13.1c-2.8-3.4-6.5-5.1-11.4-5.1c-2.7,0-5.1,0.5-7.2,1.6
		c-2.1,1.1-3.8,2.4-5.3,4.1c-1.4,1.7-2.6,3.6-3.4,5.8c-0.8,2.2-1.3,4.4-1.6,6.7H992.9z"/>
	<path class="st1" d="M1034.3,246.2c0,0.9,0,1.8,0,2.7s0,1.8-0.1,2.6c-0.3,4.4-1.3,8.7-2.9,13c-1.6,4.3-3.6,8.3-5.8,12.1l-9.1-2.9
		c1.8-3.8,3.1-7.6,4-11.4c0.9-3.8,1.3-7.3,1.3-10.6c0-0.8,0-1.8-0.1-2.7c0-1-0.1-1.9-0.2-2.9H1034.3z"/>
	<path class="st1" d="M1067.5,332.9c4.8,0,8.4-0.6,10.7-1.9c2.3-1.3,3.5-3.3,3.5-6.1c0-2.9-1.1-5.2-3.4-6.9
		c-2.3-1.7-6.1-3.6-11.3-5.7c-2.5-1-5-2.1-7.3-3.1c-2.3-1.1-4.3-2.3-6-3.7c-1.7-1.4-3-3.2-4.1-5.2c-1-2-1.5-4.5-1.5-7.5
		c0-5.8,2.2-10.5,6.5-13.9c4.3-3.4,10.2-5.1,17.7-5.1c1.9,0,3.7,0.1,5.6,0.3c1.9,0.2,3.6,0.5,5.2,0.8c1.6,0.3,3,0.6,4.3,1
		c1.2,0.3,2.2,0.6,2.9,0.9l-2.2,10.2c-1.3-0.7-3.3-1.4-6-2.1c-2.7-0.7-6-1.1-9.8-1.1c-3.3,0-6.2,0.7-8.6,2c-2.5,1.3-3.7,3.4-3.7,6.2
		c0,1.4,0.3,2.7,0.8,3.8c0.5,1.1,1.4,2.1,2.5,3c1.1,0.9,2.6,1.7,4.3,2.5c1.7,0.8,3.7,1.6,6.1,2.4c3.1,1.2,5.9,2.3,8.4,3.5
		c2.5,1.1,4.5,2.5,6.3,4c1.7,1.5,3.1,3.4,4,5.5c0.9,2.2,1.4,4.8,1.4,7.9c0,6.1-2.3,10.7-6.8,13.8c-4.5,3.1-11,4.7-19.4,4.7
		c-5.8,0-10.4-0.5-13.7-1.5c-3.3-1-5.5-1.7-6.7-2.2l2.2-10.2c1.4,0.5,3.5,1.3,6.5,2.3C1058.6,332.4,1062.6,332.9,1067.5,332.9z"/>
	<path class="st0" d="M1211.1,297.4c0,7.6-1.2,14.2-3.6,19.9c-2.4,5.6-5.7,10.3-10,14c-4.3,3.7-9.5,6.4-15.5,8.3
		c-6,1.8-12.6,2.7-19.8,2.7c-3.6,0-7.5-0.1-11.7-0.4c-4.3-0.3-8.2-0.9-11.6-1.7v-85.3c3.5-0.8,7.3-1.4,11.6-1.7
		c4.3-0.3,8.2-0.4,11.7-0.4c7.2,0,13.8,0.9,19.8,2.7c6,1.8,11.2,4.6,15.5,8.3c4.3,3.7,7.7,8.3,10,14
		C1209.9,283.1,1211.1,289.7,1211.1,297.4z M1163.2,331.4c11.7,0,20.4-3,26.2-9c5.8-6,8.6-14.3,8.6-25.1c0-10.8-2.9-19.1-8.6-25.1
		c-5.8-6-14.5-9-26.2-9c-3.5,0-6.2,0-8.1,0.1c-1.9,0.1-3.2,0.2-4,0.3V331c0.8,0.1,2.1,0.2,4,0.3
		C1157.1,331.4,1159.8,331.4,1163.2,331.4z"/>
	<path class="st0" d="M1248.2,273.7c4.7,0,8.7,0.6,12,1.8c3.3,1.2,5.9,3,7.9,5.2c2,2.2,3.4,4.9,4.3,8c0.8,3.1,1.3,6.5,1.3,10.2v41.3
		c-1,0.2-2.4,0.4-4.3,0.7c-1.8,0.3-3.9,0.6-6.2,0.8c-2.3,0.3-4.8,0.5-7.4,0.7c-2.7,0.2-5.3,0.3-7.9,0.3c-3.7,0-7.2-0.4-10.3-1.1
		c-3.1-0.8-5.8-2-8.1-3.6c-2.3-1.7-4.1-3.8-5.3-6.5c-1.3-2.7-1.9-6-1.9-9.8c0-3.6,0.7-6.8,2.2-9.4c1.5-2.6,3.5-4.7,6-6.4
		c2.5-1.6,5.5-2.8,8.9-3.6c3.4-0.8,6.9-1.1,10.7-1.1c1.2,0,2.4,0.1,3.7,0.2c1.3,0.1,2.5,0.3,3.6,0.5c1.1,0.2,2.1,0.4,3,0.6
		c0.8,0.2,1.4,0.3,1.8,0.4v-3.3c0-1.9-0.2-3.9-0.6-5.8c-0.4-1.9-1.2-3.6-2.3-5.1c-1.1-1.5-2.6-2.7-4.5-3.6c-1.9-0.9-4.4-1.3-7.4-1.3
		c-3.9,0-7.3,0.3-10.2,0.8c-2.9,0.6-5.1,1.1-6.5,1.7l-1.4-9.8c1.5-0.7,4.1-1.3,7.6-2C1240.2,274.1,1244,273.7,1248.2,273.7z
		 M1249.2,332.9c2.8,0,5.3-0.1,7.4-0.2c2.2-0.1,4-0.4,5.4-0.7v-19.7c-0.8-0.4-2.2-0.8-4.1-1.1c-1.9-0.3-4.2-0.4-6.9-0.4
		c-1.8,0-3.7,0.1-5.7,0.4c-2,0.3-3.8,0.8-5.5,1.6c-1.7,0.8-3,1.9-4.1,3.3c-1.1,1.4-1.7,3.2-1.7,5.5c0,4.2,1.4,7.2,4.1,8.8
		C1240.9,332.1,1244.6,332.9,1249.2,332.9z"/>
	<path class="st0" d="M1283.5,353.8c0.9,0.4,2.1,0.8,3.6,1.2c1.5,0.4,2.9,0.6,4.4,0.6c4.7,0,8.3-1,10.9-3.1c2.6-2.1,5-5.4,7.1-10.1
		c-5.3-10.2-10.3-20.9-14.9-32.3c-4.6-11.4-8.4-22.9-11.5-34.6h12.7c0.9,3.8,2.1,7.9,3.4,12.3c1.3,4.4,2.8,8.9,4.4,13.6
		c1.6,4.7,3.3,9.3,5.2,14c1.9,4.7,3.8,9.1,5.8,13.5c3.2-8.9,6-17.7,8.4-26.4c2.4-8.7,4.6-17.7,6.7-26.9h12.2
		c-3,12.4-6.4,24.4-10.2,35.9c-3.7,11.5-7.7,22.2-12.1,32.2c-1.7,3.8-3.5,7.1-5.3,9.8c-1.8,2.8-3.8,5-6,6.8
		c-2.2,1.8-4.7,3.1-7.4,3.9c-2.8,0.8-5.9,1.3-9.3,1.3c-0.9,0-1.9-0.1-2.9-0.2c-1-0.1-2-0.3-3-0.5c-1-0.2-1.9-0.4-2.7-0.7
		c-0.8-0.3-1.4-0.5-1.7-0.6L1283.5,353.8z"/>
</g>
<g>
	<path class="st2" d="M111.9,428.6l12.3,29.1l13-27.3h8.1l-21.6,45.1l-11.8-28l-11.8,27.6l-21.5-44.8h8.1l13,27L111.9,428.6z"/>
	<path class="st2" d="M196.3,454.2h-37.5c0.8,4.5,2.7,7.8,5.6,9.9c2.9,2.1,6,3.1,9.4,3.1c5.3,0,9.7-2.2,13.2-6.5l6.8,5.1
		c-5.1,6.6-11.9,9.8-20.4,9.8c-6.5,0-12-2.2-16.4-6.7c-4.4-4.5-6.6-10-6.6-16.7c0-6.2,2.2-11.6,6.7-16.2c4.5-4.6,9.9-6.8,16.3-6.8
		c6.3,0,11.7,2.3,16.2,6.9C194.1,440.9,196.3,446.9,196.3,454.2z M159.7,446.8h26.8c-3-6-7.4-9-13.2-9
		C167,437.8,162.5,440.8,159.7,446.8z"/>
	<path class="st2" d="M238.2,405.3h9.3v69.1h-9.3V405.3z"/>
	<path class="st2" d="M258.4,452.3c0-6,2.4-11.3,7.1-16c4.7-4.7,10.2-7,16.3-7c6.3,0,11.8,2.3,16.6,6.9c4.7,4.6,7.1,10,7.1,16.1
		c0,6.2-2.3,11.6-6.9,16.3c-4.6,4.7-10,7.1-16,7.1c-6.5,0-12.1-2.3-16.9-7C260.8,464,258.4,458.5,258.4,452.3z M296.5,452.3
		c0-3.7-1.4-7-4.3-9.7c-2.8-2.8-6.2-4.1-10.1-4.1c-4,0-7.5,1.4-10.4,4.2c-2.9,2.8-4.3,6.1-4.3,10c0,3.7,1.5,6.9,4.4,9.7
		c2.9,2.8,6.4,4.2,10.3,4.2c3.8,0,7.2-1.4,10.1-4.3C295.1,459.4,296.5,456.1,296.5,452.3z"/>
	<path class="st2" d="M310.8,430.5h9.7l12.6,25.4l12.2-25.4h9.8L333,476.1L310.8,430.5z"/>
	<path class="st2" d="M404.8,454.2h-37.5c0.8,4.5,2.7,7.8,5.6,9.9c2.9,2.1,6,3.1,9.4,3.1c5.3,0,9.7-2.2,13.2-6.5l6.8,5.1
		c-5.1,6.6-11.9,9.8-20.4,9.8c-6.5,0-12-2.2-16.4-6.7c-4.4-4.5-6.6-10-6.6-16.7c0-6.2,2.2-11.6,6.7-16.2c4.5-4.6,9.9-6.8,16.3-6.8
		c6.3,0,11.7,2.3,16.2,6.9C402.6,440.9,404.8,446.9,404.8,454.2z M368.3,446.8h26.8c-3-6-7.4-9-13.2-9
		C375.5,437.8,371,440.8,368.3,446.8z"/>
	<path class="st2" d="M442.7,430.5h10.5l15.9,23.9l11-23.9h9.6L460,495h-9.7l14.5-31.4L442.7,430.5z"/>
	<path class="st2" d="M494.3,452.3c0-6,2.4-11.3,7.1-16c4.7-4.7,10.2-7,16.3-7c6.3,0,11.8,2.3,16.6,6.9c4.7,4.6,7.1,10,7.1,16.1
		c0,6.2-2.3,11.6-6.9,16.3c-4.6,4.7-10,7.1-16,7.1c-6.5,0-12.1-2.3-16.9-7C496.7,464,494.3,458.5,494.3,452.3z M532.4,452.3
		c0-3.7-1.4-7-4.3-9.7c-2.8-2.8-6.2-4.1-10.1-4.1c-4,0-7.5,1.4-10.4,4.2c-2.9,2.8-4.3,6.1-4.3,10c0,3.7,1.5,6.9,4.4,9.7
		c2.9,2.8,6.4,4.2,10.3,4.2c3.8,0,7.2-1.4,10.1-4.3C531,459.4,532.4,456.1,532.4,452.3z"/>
	<path class="st2" d="M549.6,430.5h9.3v24.7c0,7.6,3.4,11.4,10.1,11.4c3,0,5.3-1,7.1-3.1c1.7-2,2.6-4.8,2.6-8.4v-24.7h9.2v26.2
		c0,5.5-1.8,10-5.4,13.6c-3.6,3.5-8.2,5.3-13.7,5.3c-5.7,0-10.3-1.8-13.8-5.3c-3.5-3.5-5.3-8.2-5.3-13.9V430.5z"/>
	<path class="st2" d="M597.4,468.2c0-2,0.7-3.6,2.1-5.1c1.4-1.4,3.1-2.1,5.1-2.1c2,0,3.6,0.7,5.1,2.1c1.4,1.4,2.1,3.1,2.1,5.1
		c0,2-0.7,3.7-2.1,5.1c-1.4,1.4-3.1,2.1-5.1,2.1c-2,0-3.7-0.7-5.1-2.1C598.1,471.9,597.4,470.2,597.4,468.2z"/>
	<path class="st2" d="M621.3,468.2c0-2,0.7-3.6,2.1-5.1c1.4-1.4,3.1-2.1,5.1-2.1c2,0,3.6,0.7,5.1,2.1c1.4,1.4,2.1,3.1,2.1,5.1
		c0,2-0.7,3.7-2.1,5.1s-3.1,2.1-5.1,2.1s-3.7-0.7-5.1-2.1C622,471.9,621.3,470.2,621.3,468.2z"/>
	<path class="st2" d="M645.2,468.2c0-2,0.7-3.6,2.1-5.1c1.4-1.4,3.1-2.1,5.1-2.1c2,0,3.6,0.7,5.1,2.1c1.4,1.4,2.1,3.1,2.1,5.1
		c0,2-0.7,3.7-2.1,5.1s-3.1,2.1-5.1,2.1s-3.7-0.7-5.1-2.1C645.9,471.9,645.2,470.2,645.2,468.2z"/>
</g>
</svg>
