<?xml version="1.0" encoding="utf-8"?>
<!-- Generator: Adobe Illustrator 22.0.0, SVG Export Plug-In . SVG Version: 6.00 Build 0)  -->
<svg version="1.1" id="Layer_1" xmlns="http://www.w3.org/2000/svg" xmlns:xlink="http://www.w3.org/1999/xlink" x="0px" y="0px"
	 viewBox="0 0 533 152" style="enable-background:new 0 0 533 152;" xml:space="preserve">
<style type="text/css">
	.st0{enable-background:new    ;}
	.st1{fill:#B0ACAB;}
	.st2{fill:#010101;}
</style>
<g class="st0">
	<path class="st1" d="M60.2,46.3c0,4.1-2.8,6.9-6.6,6.9H34c-2,0-2.7-1.8-3-3.3c-0.3,1.4-0.8,3.3-3,3.3H8.7c-3.8,0-6.7-2.8-6.7-6.9
		V0.7h15.6v37.5c0,1.2,0.4,1.7,1.5,1.7h3.4c1.2,0,1.5-0.6,1.5-1.7V0.7h14.2v37.6c0,1.2,0.4,1.7,1.5,1.7h3.4c1.2,0,1.5-0.6,1.5-1.7
		V0.7h15.6V46.3z"/>
	<path class="st1" d="M99.7,32.1c0,4.7-0.9,5.6-5,5.6H81.3v2.7c0,2,0.4,2,2,2h15v10.8h-25c-3,0-5.5-2.4-5.5-5.8V18.6
		c0-3,2.5-5.4,5.5-5.4h20.9c3.1,0,5.5,2.4,5.5,5.4V32.1z M86.2,25.4c0-1.1-0.1-1.5-1.1-1.5h-2.7c-1.1,0-1.2,0.6-1.2,1.5v3.5
		c0,1,0.1,1.4,1.2,1.4h2.7c0.9,0,1.1-0.4,1.1-1.4V25.4z"/>
	<path class="st1" d="M156.2,53.2h-25.1c-3.8,0-6.7-2.8-6.7-6.8V7.4c0-3.8,2.9-6.6,6.7-6.6h25.1V14h-14.7c-1.2,0-1.5,0.5-1.5,1.6
		v22.8c0,1.2,0.4,1.6,1.6,1.6h14.6V53.2z"/>
	<path class="st1" d="M195,32.1c0,4.7-0.9,5.6-5,5.6h-13.4v2.7c0,2,0.4,2,2,2h15v10.8h-25c-3,0-5.5-2.4-5.5-5.8V18.6
		c0-3,2.5-5.4,5.5-5.4h20.9c3.1,0,5.5,2.4,5.5,5.4V32.1z M181.6,25.4c0-1.1-0.1-1.5-1.1-1.5h-2.7c-1.1,0-1.2,0.6-1.2,1.5v3.5
		c0,1,0.1,1.4,1.2,1.4h2.7c0.9,0,1.1-0.4,1.1-1.4V25.4z"/>
	<path class="st1" d="M217,53.2h-14.3V0.7H217V53.2z"/>
	<path class="st1" d="M256.5,32.1c0,4.7-0.9,5.6-5,5.6h-13.4v2.7c0,2,0.4,2,2,2h15v10.8h-25c-3,0-5.5-2.4-5.5-5.8V18.6
		c0-3,2.5-5.4,5.5-5.4H251c3.1,0,5.5,2.4,5.5,5.4V32.1z M243.1,25.4c0-1.1-0.1-1.5-1.1-1.5h-2.7c-1.1,0-1.2,0.6-1.2,1.5v3.5
		c0,1,0.1,1.4,1.2,1.4h2.7c0.9,0,1.1-0.4,1.1-1.4V25.4z"/>
	<path class="st1" d="M277.1,53.2h-12.9V0.7h12.9V16c0.6-2.4,2.1-2.8,4.6-2.8h9.4c3,0,5.4,2.4,5.4,5.4v29c0,3.3-2,5.7-5.4,5.7h-9.4
		c-2.5,0-4-0.4-4.6-2.8V53.2z M281.7,42.4c1.1,0,1.2-0.3,1.2-1.2V25.6c0-0.9-0.3-1.5-1.3-1.5H279c-0.9,0-1.2,0.5-1.2,1.4v15.6
		c0,0.9,0.3,1.3,1.2,1.3H281.7z"/>
	<path class="st1" d="M326.8,13.1v10.9h-7.6c-0.9,0-1.2,0.6-1.2,1.5v27.7h-13.9V13.1h12.9V16c0.6-2.4,2.1-2.8,4.6-2.8H326.8z"/>
	<path class="st1" d="M351.1,53.2v-2.8c-0.6,2.4-2.1,2.8-4.6,2.8h-8.9c-3.2,0-5.6-2.4-5.6-5.4V34.3c0-4.8,0.9-5.6,5.1-5.6h13.3v-2.5
		c0-2.3-0.1-2.2-2.2-2.2h-14.1V13.1h24.4c3,0,5.4,2.4,5.4,5.7v34.4H351.1z M350.4,37.3c0-0.9-0.1-1.4-1.2-1.4h-2.6
		c-1,0-1.1,0.4-1.1,1.4v3.5c0,1.1,0.1,1.5,1.1,1.5h2.6c1.1,0,1.2-0.6,1.2-1.5V37.3z"/>
	<path class="st1" d="M387.7,24.1v29.2h-14.2V24.1h-3.6V13.1h3.6V9.7l14.2-9.8v13.3h5v10.9H387.7z"/>
	<path class="st1" d="M430.5,32.1c0,4.7-0.9,5.6-5,5.6h-13.4v2.7c0,2,0.4,2,2,2h15v10.8h-25c-3,0-5.5-2.4-5.5-5.8V18.6
		c0-3,2.5-5.4,5.5-5.4H425c3.1,0,5.5,2.4,5.5,5.4V32.1z M417.1,25.4c0-1.1-0.1-1.5-1.1-1.5h-2.7c-1.1,0-1.2,0.6-1.2,1.5v3.5
		c0,1,0.1,1.4,1.2,1.4h2.7c0.9,0,1.1-0.4,1.1-1.4V25.4z"/>
</g>
<g class="st0">
	<path class="st2" d="M35.8,139.9H10.6c-3.8,0-6.7-2.8-6.7-6.8v-13.3H0.5v-12.4h3.4V94.1c0-3.8,2.9-6.6,6.6-6.6h25.3v13.3H20.7
		c-1.2,0-1.5,0.5-1.5,1.6v5.2h14.9v12.4H19.2v5.2c0,1.2,0.4,1.6,1.6,1.6h15V139.9z"/>
	<path class="st2" d="M62.2,139.9v-2.8c-0.6,2.4-2.1,2.8-4.6,2.8h-8.9c-3.2,0-5.6-2.4-5.6-5.4V121c0-4.8,0.9-5.6,5.1-5.6h13.3v-2.5
		c0-2.3-0.1-2.2-2.2-2.2H45.1V99.8h24.4c3,0,5.4,2.4,5.4,5.7v34.4H62.2z M61.5,124c0-0.9-0.1-1.4-1.2-1.4h-2.6c-1,0-1.1,0.4-1.1,1.4
		v3.5c0,1.1,0.1,1.5,1.1,1.5h2.6c1.1,0,1.2-0.6,1.2-1.5V124z"/>
	<path class="st2" d="M112.3,132c0,6.8-1.4,7.9-7.7,7.9h-22v-10.8h14.2c0.5,0,0.8-0.1,0.8-0.8v-2.5c0-0.7-0.3-1-0.9-1H86.2
		c-2.2,0-3.5-0.6-3.5-3.1v-14.1c0-6.9,1.7-7.8,8.2-7.8h21.5v10.9H97.5c-0.6,0-0.8,0.1-0.8,0.8v2.5c0,0.7,0.2,1,0.8,1h9.8
		c4,0,5,0.6,5,4.6V132z"/>
	<path class="st2" d="M136,110.7v29.2h-14.2v-29.2h-3.6V99.8h3.6v-3.5l14.2-9.8v13.3h5v10.9H136z"/>
	<path class="st2" d="M178.9,118.8c0,4.7-0.9,5.6-5,5.6h-13.4v2.7c0,2,0.4,2,2,2h15v10.8h-25c-3,0-5.5-2.4-5.5-5.8v-28.9
		c0-3,2.5-5.4,5.5-5.4h20.9c3.1,0,5.5,2.4,5.5,5.4V118.8z M165.4,112c0-1.1-0.1-1.5-1.1-1.5h-2.7c-1.1,0-1.2,0.6-1.2,1.5v3.5
		c0,1,0.1,1.4,1.2,1.4h2.7c0.9,0,1.1-0.4,1.1-1.4V112z"/>
	<path class="st2" d="M209.1,99.8v10.9h-7.6c-0.9,0-1.2,0.6-1.2,1.5v27.7h-13.9V99.8h12.9v2.8c0.6-2.4,2.1-2.8,4.6-2.8H209.1z"/>
	<path class="st2" d="M282.7,134.5c0,3-2.2,5.4-5.3,5.4h-15.5c-2.2,0-4-0.7-4.5-2.4c-0.5,1.7-2.2,2.4-4.5,2.4h-15.2
		c-3.2,0-5.5-2.4-5.5-5.4V99.8h13.7v27.7c0,1.1,0.1,1.5,1.1,1.5h3.3c0.9,0,1.2-0.5,1.2-1.5V99.8h12.3v27.7c0,1,0.2,1.5,1.2,1.5h3.3
		c0.9,0,1.1-0.4,1.1-1.5V99.8h13.7V134.5z"/>
	<path class="st2" d="M304.6,139.9h-14.2V99.8h14.2V139.9z M304.2,92.5c0,1.5-2.2,3.7-3.7,3.7h-6.1c-1.5,0-3.7-1.6-3.7-3.7v-5.9
		c0-2,1.6-3.7,3.7-3.7h6.1c2.1,0,3.7,2.2,3.7,3.7V92.5z"/>
	<path class="st2" d="M328.4,110.7v29.2h-14.2v-29.2h-3.6V99.8h3.6v-3.5l14.2-9.8v13.3h5v10.9H328.4z"/>
	<path class="st2" d="M354.2,110.7c-0.9,0-1.2,0.6-1.2,1.5v27.7h-13.7V87.4h12.9v15.2c0.6-2.4,2.1-2.8,4.6-2.8h9
		c3,0,5.4,2.4,5.4,5.4v34.7h-13.5v-27.7c0-0.9-0.3-1.5-1.3-1.5H354.2z"/>
	<path class="st2" d="M433.2,99.8l-13,37.9v14.6h-13.6v-14.6l-13-37.9h14.8l5,21.9l5-21.9H433.2z"/>
	<path class="st2" d="M470.5,134.1c0,3.5-2.4,5.9-5.5,5.9h-21.1c-3,0-5.4-2.4-5.4-5.7v-29c0-3,2.4-5.4,5.4-5.4H465
		c3.1,0,5.5,2.4,5.5,5.4V134.1z M457.1,111.8c0-1-0.1-1.5-1.1-1.5h-2.8c-1.1,0-1.2,0.6-1.2,1.5v16.3c0,0.9,0.1,1.4,1.2,1.4h2.8
		c0.9,0,1.1-0.3,1.1-1.4V111.8z"/>
	<path class="st2" d="M483.6,139.9c-3.1,0-5.4-2.4-5.4-5.4V99.8h13.5v27.7c0,1.1,0.1,1.5,1.1,1.5h2.5c0.9,0,1.2-0.6,1.2-1.5V99.8
		h13.7v40.1h-12.9v-2.8c-0.6,2.4-2.1,2.8-4.6,2.8H483.6z"/>
	<path class="st2" d="M532.3,87.4l-2.5,34.5h-10l-2.5-34.5H532.3z M531.6,135.9c0,2.2-1.8,4-3.9,4h-5.6c-2.2,0-3.9-1.8-3.9-4v-5.6
		c0-2.1,1.7-3.9,3.9-3.9h5.6c2.1,0,3.9,1.8,3.9,3.9V135.9z"/>
</g>
</svg>
