<?xml version="1.0" encoding="UTF-8"?>
<svg width="816px" height="194px" viewBox="0 0 816 194" version="1.1" xmlns="http://www.w3.org/2000/svg" xmlns:xlink="http://www.w3.org/1999/xlink">
    <!-- Generator: Sketch 43.2 (39069) - http://www.bohemiancoding.com/sketch -->
    <title>DevFest Logo</title>
    <desc>Created with Sketch.</desc>
    <defs>
        <radialGradient cx="98.8235294%" cy="97.8824775%" fx="98.8235294%" fy="97.8824775%" r="325.441176%" gradientTransform="translate(0.988235,0.978825),scale(1.000000,0.719958),translate(-0.988235,-0.978825)" id="radialGradient-1">
            <stop stop-color="#BF360C" stop-opacity="0.2" offset="0%"></stop>
            <stop stop-color="#BF360C" stop-opacity="0.02" offset="100%"></stop>
        </radialGradient>
        <radialGradient cx="162.566215%" cy="157.690738%" fx="162.566215%" fy="157.690738%" r="262.625074%" gradientTransform="translate(1.625662,1.576907),scale(1.000000,0.693186),translate(-1.625662,-1.576907)" id="radialGradient-2">
            <stop stop-color="#263238" stop-opacity="0.2" offset="0%"></stop>
            <stop stop-color="#263238" stop-opacity="0.02" offset="100%"></stop>
        </radialGradient>
        <radialGradient cx="-1.25003601%" cy="0.78125%" fx="-1.25003601%" fy="0.78125%" r="167.942339%" gradientTransform="translate(-0.012500,0.007812),scale(1.000000,0.624982),translate(0.012500,-0.007812)" id="radialGradient-3">
            <stop stop-color="#FFFFFF" stop-opacity="0.1" offset="0%"></stop>
            <stop stop-color="#FFFFFF" stop-opacity="0" offset="100%"></stop>
        </radialGradient>
    </defs>
    <g id="Logo" stroke="none" stroke-width="1" fill="none" fill-rule="evenodd">
        <g id="DevFest-Logo">
            <g id="GDG-Icon">
                <path d="M118.809844,87.90625 L67.9757812,0 L0,0 L56.078125,97 L0,194 L67.9757812,194 L118.809844,106.09375 C122.058728,100.466518 122.058728,93.5334821 118.809844,87.90625 Z" id="Shape"></path>
                <polygon id="_Path_" fill="#FFC107" fill-rule="nonzero" points="89.6492187 155.002969 73.538125 127.130625 34.859375 194 67.9757812 194 90.08875 155.760781"></polygon>
                <path d="M118.809844,87.90625 L67.9757812,0 L0,0 L56.078125,97 L0,194 L67.9757812,194 L118.809844,106.09375 C122.058728,100.466518 122.058728,93.5334821 118.809844,87.90625 Z" id="Shape"></path>
                <polygon id="Shape" fill="#0F9D58" fill-rule="nonzero" points="56.1084375 97 73.538125 127.130625 34.859375 194 0 194"></polygon>
                <path d="M118.809844,87.90625 L67.9757812,0 L0,0 L56.078125,97 L0,194 L67.9757812,194 L118.809844,106.09375 C122.058728,100.466518 122.058728,93.5334821 118.809844,87.90625 Z" id="Shape"></path>
                <polygon id="Shape" fill="#BF360C" fill-rule="nonzero" opacity="0.2" points="67.9757812 192.484375 35.7384375 192.484375 34.859375 194 67.9757812 194 90.08875 155.760781 89.6492187 155.002969"></polygon>
                <path d="M118.809844,87.90625 L67.9757812,0 L0,0 L56.078125,97 L0,194 L67.9757812,194 L118.809844,106.09375 C122.058728,100.466518 122.058728,93.5334821 118.809844,87.90625 Z" id="Shape"></path>
                <polygon id="Shape" fill="#263238" fill-rule="nonzero" opacity="0.2" points="0.8790625 192.484375 0 194 34.859375 194 35.7384375 192.484375"></polygon>
                <path d="M118.809844,87.90625 L67.9757812,0 L0,0 L56.078125,97 L0,194 L67.9757812,194 L118.809844,106.09375 C122.058728,100.466518 122.058728,93.5334821 118.809844,87.90625 Z" id="Shape"></path>
                <polygon id="Shape" fill="#FFFFFF" fill-rule="nonzero" opacity="0.2" points="0 194 0.8790625 194 56.5479688 97.7578125 56.1084375 97"></polygon>
                <path d="M118.809844,87.90625 L67.9757812,0 L0,0 L56.078125,97 L0,194 L67.9757812,194 L118.809844,106.09375 C122.058728,100.466518 122.058728,93.5334821 118.809844,87.90625 Z" id="Shape"></path>
                <polygon id="_Path_2" fill="url(#radialGradient-1)" fill-rule="nonzero" points="90.08875 155.760781 90.08875 155.760781 73.538125 127.130625 69.47625 134.147969"></polygon>
                <path d="M118.809844,87.90625 L67.9757812,0 L0,0 L56.078125,97 L0,194 L67.9757812,194 L118.809844,106.09375 C122.058728,100.466518 122.058728,93.5334821 118.809844,87.90625 Z" id="Shape"></path>
                <polygon id="_Path_3" fill="url(#radialGradient-2)" fill-rule="nonzero" points="69.47625 134.147969 73.538125 127.130625 56.1084375 97 47.7876563 111.398438"></polygon>
                <path d="M118.809844,87.90625 L67.9757812,0 L0,0 L56.078125,97 L0,194 L67.9757812,194 L118.809844,106.09375 C122.058728,100.466518 122.058728,93.5334821 118.809844,87.90625 Z" id="Shape"></path>
                <g id="_Group_3" fill-rule="nonzero" fill="#4285F4">
                    <g id="_Group_4">
                        <polygon id="_Path_4" points="34.859375 0 0 0 90.08875 155.760781 107.503281 125.645312 107.518438 125.615"></polygon>
                    </g>
                </g>
                <path d="M118.809844,87.90625 L67.9757812,0 L0,0 L56.078125,97 L0,194 L67.9757812,194 L118.809844,106.09375 C122.058728,100.466518 122.058728,93.5334821 118.809844,87.90625 Z" id="Shape"></path>
                <path d="M118.809844,106.09375 C122.058728,100.466518 122.058728,93.5334821 118.809844,87.90625 L67.9757812,0 L34.859375,0 L107.518437,125.615 L118.809844,106.09375 Z" id="Shape" fill="#DB4437" fill-rule="nonzero"></path>
                <path d="M118.809844,87.90625 L67.9757812,0 L0,0 L56.078125,97 L0,194 L67.9757812,194 L118.809844,106.09375 C122.058728,100.466518 122.058728,93.5334821 118.809844,87.90625 Z" id="Shape"></path>
                <polygon id="Shape" fill="#1A237E" fill-rule="nonzero" opacity="0.2" points="107.518438 125.615 107.078906 124.872344 90.08875 154.245156 0.8790625 0 0 0 90.08875 155.760781 107.503281 125.645312"></polygon>
                <path d="M118.809844,87.90625 L67.9757812,0 L0,0 L56.078125,97 L0,194 L67.9757812,194 L118.809844,106.09375 C122.058728,100.466518 122.058728,93.5334821 118.809844,87.90625 Z" id="Shape"></path>
                <path d="M67.9757813,1.515625 L118.809844,89.421875 C120.284524,91.9626685 121.121784,94.8228723 121.25,97.7578125 C121.401683,94.3133595 120.571183,90.8967438 118.855312,87.90625 L67.9757813,0 L0,0 L0.8790625,1.515625 L67.9757813,1.515625 Z" id="Shape" fill="#FFFFFF" fill-rule="nonzero" opacity="0.2"></path>
                <path d="M118.809844,87.90625 L67.9757812,0 L0,0 L56.078125,97 L0,194 L67.9757812,194 L118.809844,106.09375 C122.058728,100.466518 122.058728,93.5334821 118.809844,87.90625 Z" id="Shape"></path>
                <path d="M107.518437,125.615 L118.809844,106.09375 C120.541567,103.107971 121.387909,99.6910598 121.25,96.2421875 C121.135672,99.1732875 120.314083,102.033247 118.855312,104.578125 L107.124375,124.872344 L107.518437,125.615 Z" id="_Path_5" fill="#3E2723" fill-rule="nonzero" opacity="0.2"></path>
                <path d="M118.809844,87.90625 L67.9757812,0 L0,0 L56.078125,97 L0,194 L67.9757812,194 L118.809844,106.09375 C122.058728,100.466518 122.058728,93.5334821 118.809844,87.90625 Z" id="Shape"></path>
                <path d="M118.809844,87.90625 L67.9757812,0 L0,0 L56.078125,97 L0,194 L67.9757812,194 L118.809844,106.09375 C122.058728,100.466518 122.058728,93.5334821 118.809844,87.90625 Z" id="_Path_6" fill="url(#radialGradient-3)" fill-rule="nonzero"></path>
            </g>
            <path d="M263.1,50.1 C263.1,60.10005 260.133363,68.066637 254.2,74 C247.5333,81.066702 238.766721,84.6 227.9,84.6 C217.499948,84.6 208.700036,81.000036 201.5,73.8 C194.299964,66.599964 190.7,57.733386 190.7,47.2 C190.7,36.666614 194.299964,27.800036 201.5,20.6 C208.700036,13.399964 217.499948,9.8 227.9,9.8 C233.166693,9.8 238.13331,10.733324 242.8,12.6 C247.46669,14.466676 251.299985,17.099983 254.3,20.5 L247.7,27.1 C245.499989,24.43332 242.650017,22.3500075 239.15,20.85 C235.649983,19.3499925 231.90002,18.6 227.9,18.6 C220.099961,18.6 213.500027,21.299973 208.1,26.7 C202.76664,32.166694 200.1,38.999959 200.1,47.2 C200.1,55.400041 202.76664,62.233306 208.1,67.7 C213.500027,73.100027 220.099961,75.8 227.9,75.8 C235.033369,75.8 240.966643,73.80002 245.7,69.8 C250.433357,65.79998 253.166663,60.300035 253.9,53.3 L227.9,53.3 L227.9,44.7 L262.6,44.7 C262.933335,46.566676 263.1,48.366658 263.1,50.1 Z M276.9,83 L276.9,11.4 L298.8,11.4 C309.733388,11.4 318.516633,14.699967 325.15,21.3 C331.783366,27.900033 335.1,36.53328 335.1,47.2 C335.1,57.933387 331.783366,66.5833005 325.15,73.15 C318.516633,79.7166995 309.733388,83 298.8,83 L276.9,83 Z M286.1,20.2 L286.1,74.2 L298.8,74.2 C307.133375,74.2 313.699976,71.8166905 318.5,67.05 C323.300024,62.2833095 325.7,55.666709 325.7,47.2 C325.7,38.799958 323.300024,32.200024 318.5,27.4 C313.699976,22.599976 307.133375,20.2 298.8,20.2 L286.1,20.2 Z M417.5,50.1 C417.5,60.10005 414.533363,68.066637 408.6,74 C401.9333,81.066702 393.166721,84.6 382.3,84.6 C371.899948,84.6 363.100036,81.000036 355.9,73.8 C348.699964,66.599964 345.1,57.733386 345.1,47.2 C345.1,36.666614 348.699964,27.800036 355.9,20.6 C363.100036,13.399964 371.899948,9.8 382.3,9.8 C387.566693,9.8 392.53331,10.733324 397.2,12.6 C401.86669,14.466676 405.699985,17.099983 408.7,20.5 L402.1,27.1 C399.899989,24.43332 397.050017,22.3500075 393.55,20.85 C390.049982,19.3499925 386.30002,18.6 382.3,18.6 C374.499961,18.6 367.900027,21.299973 362.5,26.7 C357.16664,32.166694 354.5,38.999959 354.5,47.2 C354.5,55.400041 357.16664,62.233306 362.5,67.7 C367.900027,73.100027 374.499961,75.8 382.3,75.8 C389.433369,75.8 395.366643,73.80002 400.1,69.8 C404.833357,65.79998 407.566663,60.300035 408.3,53.3 L382.3,53.3 L382.3,44.7 L417,44.7 C417.333335,46.566676 417.5,48.366658 417.5,50.1 Z M455.9,83 L455.9,11.4 L477.8,11.4 C488.733388,11.4 497.516633,14.699967 504.15,21.3 C510.783366,27.900033 514.1,36.53328 514.1,47.2 C514.1,57.933387 510.783366,66.5833005 504.15,73.15 C497.516633,79.7166995 488.733388,83 477.8,83 L455.9,83 Z M465.1,20.2 L465.1,74.2 L477.8,74.2 C486.133375,74.2 492.699976,71.8166905 497.5,67.05 C502.300024,62.2833095 504.7,55.666709 504.7,47.2 C504.7,38.799958 502.300024,32.200024 497.5,27.4 C492.699976,22.599976 486.133375,20.2 477.8,20.2 L465.1,20.2 Z M546.5,84.6 C539.299964,84.6 533.36669,82.133358 528.7,77.2 C524.03331,72.266642 521.7,66.033371 521.7,58.5 C521.7,51.033296 523.966644,44.8166915 528.5,39.85 C533.033356,34.8833085 538.833298,32.4 545.9,32.4 C553.166703,32.4 558.949978,34.7499765 563.25,39.45 C567.550021,44.1500235 569.7,50.733291 569.7,59.2 L569.6,60.2 L531.1,60.2 C531.233334,65.000024 532.833318,68.866652 535.9,71.8 C538.966682,74.733348 542.633312,76.2 546.9,76.2 C552.766696,76.2 557.36665,73.266696 560.7,67.4 L568.9,71.4 C566.699989,75.533354 563.650019,78.766655 559.75,81.1 C555.84998,83.433345 551.433358,84.6 546.5,84.6 Z M531.8,52.6 L559.9,52.6 C559.633332,49.199983 558.250012,46.3833445 555.75,44.15 C553.249987,41.9166555 549.900021,40.8 545.7,40.8 C542.233316,40.8 539.250012,41.866656 536.75,44 C534.249987,46.133344 532.600004,48.999982 531.8,52.6 Z M603.499999,83 L594.299999,83 L574.499999,34 L584.499999,34 L598.899999,72 L599.099999,72 L613.699999,34 L623.499999,34 L603.499999,83 Z M642.899999,52.3 L642.899999,83 L633.699999,83 L633.699999,11.4 L675.499999,11.4 L675.499999,20.2 L642.899999,20.2 L642.899999,43.7 L672.299999,43.7 L672.299999,52.3 L642.899999,52.3 Z M705.899999,84.6 C698.699963,84.6 692.766689,82.133358 688.099999,77.2 C683.433309,72.266642 681.099999,66.033371 681.099999,58.5 C681.099999,51.033296 683.366643,44.8166915 687.899999,39.85 C692.433355,34.8833085 698.233297,32.4 705.299999,32.4 C712.566702,32.4 718.349978,34.7499765 722.649999,39.45 C726.950021,44.1500235 729.099999,50.733291 729.099999,59.2 L728.999999,60.2 L690.499999,60.2 C690.633333,65.000024 692.233317,68.866652 695.299999,71.8 C698.366681,74.733348 702.033311,76.2 706.299999,76.2 C712.166695,76.2 716.766649,73.266696 720.099999,67.4 L728.299999,71.4 C726.099988,75.533354 723.050019,78.766655 719.149999,81.1 C715.24998,83.433345 710.833357,84.6 705.899999,84.6 Z M691.199999,52.6 L719.299999,52.6 C719.033331,49.199983 717.650012,46.3833445 715.149999,44.15 C712.649987,41.9166555 709.30002,40.8 705.099999,40.8 C701.633315,40.8 698.650012,41.866656 696.149999,44 C693.649987,46.133344 692.000003,48.999982 691.199999,52.6 Z M778.099999,69.4 C778.099999,73.666688 776.233351,77.266652 772.499999,80.2 C768.766647,83.133348 764.066694,84.6 758.399999,84.6 C753.466641,84.6 749.133351,83.3166795 745.399999,80.75 C741.666647,78.1833205 739.000007,74.800021 737.399999,70.6 L745.599999,67.1 C746.800005,70.033348 748.549988,72.3166585 750.849999,73.95 C753.150011,75.5833415 755.666652,76.4 758.399999,76.4 C761.333347,76.4 763.783323,75.766673 765.749999,74.5 C767.716676,73.233327 768.699999,71.733342 768.699999,70 C768.699999,66.866651 766.300023,64.566674 761.499999,63.1 L753.099999,61 C743.566618,58.599988 738.799999,54.000034 738.799999,47.2 C738.799999,42.733311 740.616648,39.1500135 744.249999,36.45 C747.883351,33.7499865 752.533304,32.4 758.199999,32.4 C762.533354,32.4 766.449982,33.433323 769.949999,35.5 C773.450017,37.566677 775.899992,40.333316 777.299999,43.8 L769.099999,47.2 C768.166661,45.133323 766.65001,43.5166725 764.549999,42.35 C762.449989,41.1833275 760.100012,40.6 757.499999,40.6 C755.099987,40.6 752.950009,41.199994 751.049999,42.4 C749.14999,43.600006 748.199999,45.066658 748.199999,46.8 C748.199999,49.600014 750.833306,51.599994 756.099999,52.8 L763.499999,54.7 C773.233381,57.100012 778.099999,61.999963 778.099999,69.4 Z M807.599999,83.8 C803.599979,83.8 800.283346,82.566679 797.649999,80.1 C795.016653,77.633321 793.666666,74.200022 793.599999,69.8 L793.599999,42.4 L784.999999,42.4 L784.999999,34 L793.599999,34 L793.599999,19 L802.799999,19 L802.799999,34 L814.799999,34 L814.799999,42.4 L802.799999,42.4 L802.799999,66.8 C802.799999,70.066683 803.433326,72.2833275 804.699999,73.45 C805.966672,74.6166725 807.399991,75.2 808.999999,75.2 C809.733336,75.2 810.449996,75.1166675 811.149999,74.95 C811.850003,74.7833325 812.499996,74.566668 813.099999,74.3 L815.999999,82.5 C813.599987,83.366671 810.800015,83.8 807.599999,83.8 Z M238.4,163.9 C238.4,170.166698 236.100023,175.199981 231.5,179 C226.83331,182.733352 221.1667,184.6 214.5,184.6 C208.566637,184.6 203.333356,182.866684 198.8,179.4 C194.266644,175.933316 191.133342,171.20003 189.4,165.2 L198.2,161.6 C198.800003,163.733344 199.633328,165.666658 200.7,167.4 C201.766672,169.133342 203.01666,170.61666 204.45,171.85 C205.883341,173.083339 207.466658,174.049996 209.2,174.75 C210.933342,175.450003 212.766657,175.8 214.7,175.8 C218.900021,175.8 222.33332,174.716678 225,172.55 C227.66668,170.383322 229,167.500018 229,163.9 C229,160.899985 227.900011,158.333344 225.7,156.2 C223.633323,154.133323 219.766695,152.133343 214.1,150.2 C208.366638,148.133323 204.800007,146.733337 203.4,146 C195.799962,142.133314 192,136.433371 192,128.9 C192,123.633307 194.099979,119.133352 198.3,115.4 C202.566688,111.666648 207.799969,109.8 214,109.8 C219.466694,109.8 224.19998,111.199986 228.2,114 C232.20002,116.733347 234.86666,120.166646 236.2,124.3 L227.6,127.9 C226.799996,125.23332 225.216679,123.016676 222.85,121.25 C220.483321,119.483324 217.600017,118.6 214.2,118.6 C210.599982,118.6 207.566679,119.59999 205.1,121.6 C202.633321,123.466676 201.4,125.899985 201.4,128.9 C201.4,131.366679 202.366657,133.499991 204.3,135.3 C206.433344,137.100009 211.066631,139.233321 218.2,141.7 C225.466703,144.166679 230.649985,147.183315 233.75,150.75 C236.850015,154.316685 238.4,158.699974 238.4,163.9 Z M272.5,184.6 C265.299964,184.6 259.36669,182.133358 254.7,177.2 C250.03331,172.266642 247.7,166.033371 247.7,158.5 C247.7,151.033296 249.966644,144.816691 254.5,139.85 C259.033356,134.883308 264.833298,132.4 271.9,132.4 C279.166703,132.4 284.949978,134.749977 289.25,139.45 C293.550021,144.150024 295.7,150.733291 295.7,159.2 L295.6,160.2 L257.1,160.2 C257.233334,165.000024 258.833318,168.866652 261.9,171.8 C264.966682,174.733348 268.633312,176.2 272.9,176.2 C278.766696,176.2 283.36665,173.266696 286.7,167.4 L294.9,171.4 C292.699989,175.533354 289.650019,178.766655 285.75,181.1 C281.84998,183.433345 277.433358,184.6 272.5,184.6 Z M257.8,152.6 L285.9,152.6 C285.633332,149.199983 284.250012,146.383344 281.75,144.15 C279.249987,141.916655 275.900021,140.8 271.7,140.8 C268.233316,140.8 265.250012,141.866656 262.75,144 C260.249987,146.133344 258.600004,148.999982 257.8,152.6 Z M313.9,168 C313.9,170.400012 314.916656,172.399992 316.95,174 C318.983343,175.600008 321.366653,176.4 324.1,176.4 C327.966686,176.4 331.416651,174.966681 334.45,172.1 C337.483348,169.233319 339,165.866686 339,162 C336.133319,159.733322 332.133359,158.6 327,158.6 C323.266648,158.6 320.150012,159.499991 317.65,161.3 C315.149987,163.100009 313.9,165.33332 313.9,168 Z M325.8,132.4 C332.600034,132.4 337.966647,134.216649 341.9,137.85 C345.833353,141.483351 347.8,146.466635 347.8,152.8 L347.8,183 L339,183 L339,176.2 L338.6,176.2 C334.799981,181.800028 329.733365,184.6 323.4,184.6 C317.999973,184.6 313.483351,183.000016 309.85,179.8 C306.216648,176.599984 304.4,172.600024 304.4,167.8 C304.4,162.733308 306.316647,158.700015 310.15,155.7 C313.983352,152.699985 319.099968,151.2 325.5,151.2 C330.966694,151.2 335.466649,152.19999 339,154.2 L339,152.1 C339,148.899984 337.733346,146.183344 335.2,143.95 C332.666654,141.716656 329.700017,140.6 326.3,140.6 C321.166641,140.6 317.100015,142.766645 314.1,147.1 L306,142 C310.466689,135.599968 317.066623,132.4 325.8,132.4 Z M397.8,169.4 C397.8,173.666688 395.933352,177.266652 392.2,180.2 C388.466648,183.133348 383.766695,184.6 378.1,184.6 C373.166642,184.6 368.833352,183.316679 365.1,180.75 C361.366648,178.183321 358.700008,174.800021 357.1,170.6 L365.3,167.1 C366.500006,170.033348 368.249988,172.316659 370.55,173.95 C372.850011,175.583341 375.366653,176.4 378.1,176.4 C381.033348,176.4 383.483323,175.766673 385.45,174.5 C387.416676,173.233327 388.4,171.733342 388.4,170 C388.4,166.866651 386.000024,164.566674 381.2,163.1 L372.8,161 C363.266619,158.599988 358.5,154.000034 358.5,147.2 C358.5,142.733311 360.316648,139.150014 363.95,136.45 C367.583351,133.749987 372.233305,132.4 377.9,132.4 C382.233355,132.4 386.149982,133.433323 389.65,135.5 C393.150017,137.566677 395.599993,140.333316 397,143.8 L388.8,147.2 C387.866662,145.133323 386.35001,143.516672 384.25,142.35 C382.149989,141.183327 379.800013,140.6 377.2,140.6 C374.799988,140.6 372.650009,141.199994 370.75,142.4 C368.84999,143.600006 367.9,145.066658 367.9,146.8 C367.9,149.600014 370.533307,151.599994 375.8,152.8 L383.2,154.7 C392.933382,157.100012 397.8,161.999963 397.8,169.4 Z M406.1,158.5 C406.1,150.966629 408.466643,144.733358 413.2,139.8 C418.000024,134.866642 424.033297,132.4 431.3,132.4 C438.566703,132.4 444.566643,134.866642 449.3,139.8 C454.100024,144.733358 456.5,150.966629 456.5,158.5 C456.5,166.100038 454.100024,172.333309 449.3,177.2 C444.566643,182.133358 438.566703,184.6 431.3,184.6 C424.033297,184.6 418.000024,182.133358 413.2,177.2 C408.466643,172.266642 406.1,166.033371 406.1,158.5 Z M415.3,158.5 C415.3,163.766693 416.833318,168.033317 419.9,171.3 C422.966682,174.566683 426.766644,176.2 431.3,176.2 C435.833356,176.2 439.633318,174.566683 442.7,171.3 C445.766682,168.033317 447.3,163.766693 447.3,158.5 C447.3,153.299974 445.766682,149.066683 442.7,145.8 C439.566651,142.46665 435.766689,140.8 431.3,140.8 C426.833311,140.8 423.033349,142.46665 419.9,145.8 C416.833318,149.066683 415.3,153.299974 415.3,158.5 Z M466.5,134 L475.3,134 L475.3,140.8 L475.7,140.8 C477.100007,138.399988 479.249985,136.400008 482.15,134.8 C485.050014,133.199992 488.066651,132.4 491.2,132.4 C497.20003,132.4 501.81665,134.116649 505.05,137.55 C508.283349,140.98335 509.9,145.866635 509.9,152.2 L509.9,183 L500.7,183 L500.7,152.8 C500.499999,144.79996 496.466706,140.8 488.6,140.8 C484.933315,140.8 481.866679,142.283319 479.4,145.25 C476.933321,148.216681 475.7,151.766646 475.7,155.9 L475.7,183 L466.5,183 L466.5,134 Z M589.899999,174.2 L589.899999,183 L546.299999,183 L546.299999,173.8 L563.999999,155.9 C569.933362,149.833303 574.033321,145.283348 576.299999,142.25 C578.566677,139.216652 579.699999,136.03335 579.699999,132.7 C579.699999,129.699985 578.533344,127.133344 576.199999,125 C573.866654,122.866656 570.866684,121.8 567.199999,121.8 C564.06665,121.8 561.366677,122.733324 559.099999,124.6 C556.833321,126.466676 555.366669,128.73332 554.699999,131.4 L546.299999,128 C547.633339,123.799979 550.19998,120.250014 553.999999,117.35 C557.800018,114.449985 562.26664,113 567.399999,113 C573.60003,113 578.766645,114.899981 582.899999,118.7 C587.033353,122.500019 589.099999,127.166639 589.099999,132.7 C589.099999,139.300033 585.466702,146.433295 578.199999,154.1 L558.199999,174.2 L589.899999,174.2 Z M601.299999,148.8 C601.299999,138.399948 603.86664,129.833367 608.999999,123.1 C614.133358,116.366633 620.733292,113 628.799999,113 C636.866706,113 643.46664,116.399966 648.599999,123.2 C653.733358,129.933367 656.299999,138.466615 656.299999,148.8 C656.299999,159.066718 653.733358,167.633299 648.599999,174.5 C643.46664,181.233367 636.866706,184.6 628.799999,184.6 C620.733292,184.6 614.133358,181.233367 608.999999,174.5 C603.86664,167.633299 601.299999,159.066718 601.299999,148.8 Z M646.899999,148.8 C646.899999,140.933294 645.233349,134.466692 641.899999,129.4 C638.633316,124.333308 634.266693,121.8 628.799999,121.8 C623.333305,121.8 618.966682,124.333308 615.699999,129.4 C612.366649,134.466692 610.699999,140.933294 610.699999,148.8 C610.699999,156.666706 612.366649,163.166641 615.699999,168.3 C618.966682,173.300025 623.333305,175.8 628.799999,175.8 C634.266693,175.8 638.633316,173.266692 641.899999,168.2 C645.233349,163.066641 646.899999,156.600039 646.899999,148.8 Z M692.299999,114.6 L692.299999,183 L683.099999,183 L683.099999,126 L669.799999,131.8 L666.299999,124 L686.399999,114.6 L692.299999,114.6 Z M751.599999,124 L718.399999,184.6 L710.199999,180.4 L741.899999,123.4 L707.299999,123.4 L707.499999,114.6 L751.599999,114.6 L751.599999,124 Z" id="GDG-DevFest-Season-2" fill="#999999"></path>
        </g>
    </g>
</svg>