<?xml version="1.0" encoding="utf-8"?>
<!-- Generator: Adobe Illustrator 22.0.0, SVG Export Plug-In . SVG Version: 6.00 Build 0)  -->
<svg version="1.1" id="Layer_1" xmlns="http://www.w3.org/2000/svg" xmlns:xlink="http://www.w3.org/1999/xlink" x="0px" y="0px"
	 viewBox="0 0 250 70" style="enable-background:new 0 0 250 70;" xml:space="preserve">
<style type="text/css">
	.st0{fill:#D17C2C;}
	.st1{fill:url(#SVGID_1_);}
	.st2{fill:#020501;}
</style>
<g>
	<g>
		<path d="M28.5,49.6l-0.3,0.2c-0.1-0.1-0.1-0.1-0.2-0.2c-0.1,0-0.2-0.1-0.3-0.1c-0.1,0-0.2,0-0.3,0.1c-0.1,0.1-0.1,0.1-0.1,0.2
			c0,0.1,0,0.1,0.1,0.2c0.1,0.1,0.2,0.1,0.4,0.2c0.2,0.1,0.3,0.1,0.4,0.2c0.1,0.1,0.2,0.1,0.2,0.2c0.1,0.1,0.1,0.2,0.1,0.2
			c0,0.1,0,0.2,0,0.3c0,0.2-0.1,0.4-0.2,0.6C28.2,51.9,28,52,27.8,52c-0.2,0-0.4-0.1-0.6-0.2c-0.2-0.1-0.3-0.3-0.4-0.5l0.4-0.1
			c0.1,0.3,0.3,0.4,0.6,0.4c0.1,0,0.2,0,0.3-0.1s0.1-0.2,0.1-0.3c0-0.1,0-0.1-0.1-0.2S28,50.8,28,50.8c-0.1,0-0.2-0.1-0.3-0.2
			c-0.1-0.1-0.3-0.1-0.3-0.2c-0.1,0-0.1-0.1-0.2-0.2c-0.1-0.1-0.1-0.1-0.1-0.2c0-0.1,0-0.1,0-0.2c0-0.2,0.1-0.3,0.2-0.5
			c0.1-0.1,0.3-0.2,0.5-0.2c0.1,0,0.3,0,0.4,0.1C28.3,49.4,28.4,49.4,28.5,49.6z"/>
		<path d="M34.4,51.6l0.4,0.4h-0.5l-0.2-0.2c-0.2,0.1-0.5,0.2-0.7,0.2c-0.4,0-0.7-0.1-1-0.4s-0.4-0.6-0.4-1c0-0.4,0.1-0.7,0.4-1
			c0.3-0.3,0.6-0.4,1-0.4c0.4,0,0.7,0.1,1,0.4c0.3,0.3,0.4,0.6,0.4,0.9C34.8,51,34.7,51.3,34.4,51.6z M33.8,51.5l-0.6-0.6h0.5
			l0.4,0.4c0.2-0.2,0.3-0.5,0.3-0.7c0-0.3-0.1-0.5-0.3-0.7c-0.2-0.2-0.5-0.3-0.8-0.3c-0.3,0-0.5,0.1-0.7,0.3
			c-0.2,0.2-0.3,0.4-0.3,0.7s0.1,0.5,0.3,0.7c0.2,0.2,0.5,0.3,0.8,0.3C33.5,51.6,33.7,51.6,33.8,51.5z"/>
		<path d="M38.4,49.3h0.4v1.6c0,0.2,0.1,0.4,0.2,0.5c0.1,0.1,0.3,0.2,0.5,0.2c0.2,0,0.4-0.1,0.5-0.2c0.1-0.1,0.2-0.3,0.2-0.5v-1.7
			h0.4v1.6c0,0.3-0.1,0.6-0.3,0.8c-0.2,0.2-0.4,0.3-0.7,0.3c-0.3,0-0.6-0.1-0.7-0.3c-0.2-0.2-0.3-0.5-0.3-0.9V49.3z"/>
		<path d="M44.9,49.2l1.2,2.7h-0.4l-0.3-0.7h-1.1l-0.3,0.7h-0.4L44.9,49.2z M44.9,50l-0.4,0.9h0.8L44.9,50z"/>
		<path d="M49.6,49.3h0.6c0.3,0,0.5,0.1,0.7,0.2c0.2,0.1,0.3,0.3,0.3,0.5c0,0.2-0.1,0.3-0.2,0.5c-0.1,0.1-0.3,0.2-0.5,0.3l0.8,1.1
			h-0.4L50,50.8H50v1.1h-0.4V49.3z M50,49.6v0.9c0.5,0,0.8-0.1,0.8-0.5c0-0.1,0-0.2-0.1-0.3c-0.1-0.1-0.1-0.1-0.2-0.1
			S50.2,49.6,50,49.6z"/>
		<path d="M54.7,49.3h1.4v0.4H55v0.6h1.1v0.3H55v0.9h1.1v0.3h-1.4V49.3z"/>
	</g>
	<path class="st0" d="M61.3,49l-0.5,3.8c0,0.3-0.2,0.6-0.5,0.7L42.1,63c-0.3,0.1-0.6,0.1-0.9,0l-18.4-9.5c-0.3-0.1-0.5-0.4-0.5-0.7
		L21.8,49c0-0.1,0.1-0.3,0.2-0.3h1.5c0.1,0,0.2,0.1,0.2,0.2l0.3,2.6c0,0.3,0.2,0.6,0.5,0.7l16.5,8.5c0.3,0.1,0.6,0.1,0.9,0l16.4-8.5
		c0.3-0.1,0.5-0.4,0.5-0.7l0.3-2.6c0-0.1,0.1-0.2,0.2-0.2H61C61.2,48.8,61.3,48.9,61.3,49z"/>
	<path class="st0" d="M65.7,14.4l-2.5,19.3c0,0.1-0.1,0.2-0.2,0.2h-1.5c-0.1,0-0.2-0.1-0.2-0.3l2.3-18.1c0.1-0.4-0.2-0.8-0.5-1
		c-7.8-3.8-15.3-5.7-22.5-5.7c-7.1,0-14,1.9-20.6,5.6c-0.3,0.2-0.5,0.6-0.5,0.9l2.3,18.2c0,0.1-0.1,0.3-0.2,0.3h-1.5
		c-0.1,0-0.2-0.1-0.2-0.2l-2.5-19.3c0-0.4,0.1-0.7,0.4-0.9c14.3-8.5,30-8.8,47.4,0C65.6,13.6,65.8,14,65.7,14.4z"/>
	<g>
		<path d="M14.4,37.1v8.4c0,0.6,0.5,1.2,1.2,1.2h8.3c0.6,0,1.2-0.5,1.2-1.2v-8.4c0-0.6-0.5-1.2-1.2-1.2h-8.3
			C14.9,35.9,14.4,36.4,14.4,37.1z M22.9,44.5h-6.4v-6.5h6.4V44.5z"/>
		<path d="M68.7,37.1v8.4c0,0.6-0.5,1.2-1.2,1.2h-6.8c-0.6,0-1.2-0.5-1.2-1.2v-8.4c0-0.6,0.5-1.2,1.2-1.2h0.9v8.7h4.9v-8.7h0.9
			C68.2,35.9,68.7,36.4,68.7,37.1z"/>
		<path d="M28,35.9h-1.1v8.4v2.3v0.1h2.3h5.5v-0.1v-1.1c0-0.6-0.5-1.2-1.2-1.2h-4.4v-7.2C29.1,36.4,28.6,35.9,28,35.9z"/>
		<path d="M56.6,35.9h-6.6c-0.6,0-1.2,0.5-1.2,1.2v1.1h3.4v8.5h0.9c0.6,0,1.2-0.5,1.2-1.2v-7.3h3.4v-1.1
			C57.8,36.4,57.3,35.9,56.6,35.9z"/>
		<path d="M36.5,37.1v8.4c0,0.6,0.5,1.2,1.2,1.2h8.3c0.6,0,1.2-0.5,1.2-1.2v-8.4c0-0.6-0.5-1.2-1.2-1.2h-8.3
			C37,35.9,36.5,36.4,36.5,37.1z M45,44.5h-6.4v-6.5H45V44.5z"/>
	</g>
	<g>
		<path d="M97.1,51.7l-0.8,0.6c-0.2-0.2-0.4-0.4-0.5-0.5c-0.2-0.1-0.4-0.2-0.7-0.2c-0.3,0-0.6,0.1-0.8,0.2c-0.2,0.2-0.3,0.3-0.3,0.6
			c0,0.2,0.1,0.4,0.3,0.5c0.2,0.2,0.5,0.3,0.9,0.5c0.4,0.2,0.8,0.4,1,0.5c0.2,0.2,0.4,0.3,0.6,0.5c0.2,0.2,0.3,0.4,0.3,0.6
			c0.1,0.2,0.1,0.4,0.1,0.7c0,0.6-0.2,1-0.6,1.4c-0.4,0.4-0.9,0.6-1.5,0.6c-0.6,0-1.1-0.2-1.5-0.5c-0.4-0.3-0.8-0.8-1-1.4l0.9-0.3
			c0.3,0.8,0.9,1.1,1.6,1.1c0.3,0,0.6-0.1,0.8-0.3s0.3-0.5,0.3-0.8c0-0.2-0.1-0.4-0.2-0.6c-0.1-0.2-0.3-0.3-0.4-0.5
			c-0.2-0.1-0.5-0.3-0.8-0.4c-0.4-0.2-0.7-0.3-0.9-0.4c-0.2-0.1-0.4-0.3-0.5-0.5c-0.2-0.2-0.3-0.4-0.3-0.5c-0.1-0.2-0.1-0.4-0.1-0.6
			c0-0.5,0.2-0.9,0.6-1.2c0.4-0.3,0.9-0.5,1.4-0.5c0.4,0,0.7,0.1,1.1,0.2C96.6,51.1,96.9,51.4,97.1,51.7z"/>
		<path d="M112.6,57l1.1,1.2h-1.2l-0.6-0.6c-0.6,0.3-1.3,0.5-1.8,0.5c-1,0-1.9-0.4-2.7-1.1c-0.7-0.7-1.1-1.6-1.1-2.6
			c0-1,0.4-1.8,1.1-2.5c0.7-0.7,1.6-1.1,2.7-1.1c1,0,1.9,0.3,2.6,1c0.7,0.7,1.1,1.5,1.1,2.5C113.8,55.4,113.4,56.3,112.6,57z
			 M111.2,56.8l-1.5-1.6h1.2l1,1.1c0.6-0.6,0.9-1.2,0.9-2c0-0.8-0.3-1.4-0.8-1.9c-0.5-0.5-1.2-0.8-2-0.8c-0.8,0-1.4,0.3-1.9,0.8
			s-0.8,1.2-0.8,1.9s0.3,1.4,0.8,1.9c0.5,0.5,1.2,0.8,2,0.8C110.4,57,110.8,56.9,111.2,56.8z"/>
		<path d="M123.1,50.9h0.9v4.2c0,0.6,0.1,1.1,0.4,1.4c0.3,0.3,0.7,0.5,1.3,0.5c0.5,0,1-0.2,1.3-0.5c0.3-0.3,0.5-0.8,0.5-1.3v-4.3
			h0.9v4.3c0,0.8-0.2,1.5-0.7,2c-0.5,0.5-1.1,0.7-1.9,0.7c-0.8,0-1.5-0.3-1.9-0.8c-0.5-0.5-0.7-1.3-0.7-2.2V50.9z"/>
		<path d="M140.4,50.7l3.2,7.1h-1l-0.8-1.7h-2.9l-0.8,1.7h-1L140.4,50.7z M140.4,52.8l-1.1,2.4h2.2L140.4,52.8z"/>
		<path d="M152.7,50.9h1.5c0.7,0,1.3,0.2,1.8,0.5c0.5,0.4,0.7,0.8,0.7,1.4c0,0.5-0.1,0.9-0.4,1.2c-0.3,0.3-0.8,0.6-1.4,0.7l2,2.9
			h-1.1l-1.9-2.8h-0.2v2.8h-0.9V50.9z M153.6,51.8v2.4c1.4,0,2.1-0.4,2.1-1.2c0-0.3-0.1-0.5-0.2-0.7c-0.2-0.2-0.4-0.3-0.6-0.4
			C154.5,51.8,154.1,51.8,153.6,51.8z"/>
		<path d="M166.1,50.9h3.8v0.9H167v1.7h2.9v0.9H167v2.3h2.9v0.9h-3.8V50.9z"/>
	</g>
	<g>
		<path d="M92.7,18.8V41c0,1.7,1.4,3.1,3.1,3.1h21.8c1.7,0,3.1-1.4,3.1-3.1V18.8c0-1.7-1.4-3.1-3.1-3.1H95.7
			C94.1,15.8,92.7,17.1,92.7,18.8z M115.1,38.4H98.2v-17h16.8V38.4z"/>
		<path d="M235.6,18.8V41c0,1.7-1.4,3.1-3.1,3.1h-17.8c-1.7,0-3.1-1.4-3.1-3.1V18.8c0-1.7,1.4-3.1,3.1-3.1h2.4v22.9h13V15.8h2.4
			C234.2,15.8,235.6,17.1,235.6,18.8z"/>
		<path d="M128.3,15.8h-2.9v22.1v6V44h6H146v-0.1V41c0-1.7-1.4-3.1-3.1-3.1h-11.5V18.8C131.4,17.1,130,15.8,128.3,15.8z"/>
		<path d="M203.8,15.8h-17.3c-1.7,0-3.1,1.4-3.1,3.1v2.9h9V44h2.4c1.7,0,3.1-1.4,3.1-3.1V21.8h9v-2.9
			C206.9,17.1,205.5,15.8,203.8,15.8z"/>
		<path d="M150.8,18.8V41c0,1.7,1.4,3.1,3.1,3.1h21.8c1.7,0,3.1-1.4,3.1-3.1V18.8c0-1.7-1.4-3.1-3.1-3.1h-21.8
			C152.1,15.8,150.8,17.1,150.8,18.8z M173.2,38.4h-16.8v-17h16.8V38.4z"/>
	</g>
	<g>
		<polygon class="st0" points="48.3,17.8 46.8,21 50.1,21.5 		"/>
		<polygon class="st0" points="54.4,22.3 50.8,21.8 46.3,26.2 46.6,28.4 48.3,27.5 52.1,29.5 51.4,25.3 		"/>
		<polygon class="st0" points="34.8,17.8 33,21.5 36.4,21 		"/>
		<polygon class="st0" points="28.7,22.3 31.7,25.3 31,29.5 34.8,27.5 36.5,28.4 36.9,26.2 32.3,21.8 		"/>
		<radialGradient id="SVGID_1_" cx="41.5802" cy="23.8165" r="7.3286" gradientUnits="userSpaceOnUse">
			<stop  offset="0" style="stop-color:#FFD373"/>
			<stop  offset="1" style="stop-color:#D17C2C"/>
		</radialGradient>
		<polygon class="st1" points="49.1,22.1 43.9,21.4 41.6,16.7 39.3,21.4 34.1,22.1 37.8,25.8 36.9,31 41.6,28.5 46.2,31 45.3,25.8 
					"/>
	</g>
	<g>
		<path class="st2" d="M80,7.7c0.2,4.4,0.2,8.7,0.3,13.1l0.1,13.1l-0.1,13.1c-0.1,4.4-0.1,8.7-0.3,13.1c-0.2-4.4-0.2-8.7-0.3-13.1
			l-0.1-13.1l0.1-13.1C79.8,16.4,79.8,12.1,80,7.7z"/>
	</g>
</g>
</svg>
